<?xml version="1.0" encoding="UTF-8"?>
<svg version="1.1" xmlns="http://www.w3.org/2000/svg" width="635" height="609">
<path d="M0 0 C9.21340684 1.20250261 18.24570382 2.79048382 27.3125 4.8125 C36.6711177 6.86160705 46.03789632 8.83525243 55.4375 10.6875 C62.47940889 12.08007794 69.50118128 13.49446612 76.4765625 15.1953125 C79.54808722 15.89679154 82.61837528 16.51782281 85.7109375 17.1171875 C86.74395996 17.32408203 87.77698242 17.53097656 88.84130859 17.74414062 C90.90634604 18.15657352 92.97437967 18.5543471 95.04541016 18.93554688 C100.84251293 20.11395507 104.25494926 21.13620914 108 26 C108.43135254 26.55526367 108.86270508 27.11052734 109.30712891 27.68261719 C110.68375177 29.49093877 112.00262198 31.33038405 113.3125 33.1875 C113.9940918 34.13012695 113.9940918 34.13012695 114.68945312 35.09179688 C118 39.74647556 118 39.74647556 118 42 C118.66 42 119.32 42 120 42 C121.62109375 44.265625 121.62109375 44.265625 123.4375 47.25 C125.93749864 51.33995353 125.93749864 51.33995353 128.72265625 55.234375 C130 57 130 57 130 59 C130.66 59 131.32 59 132 59 C133.515625 61.125 133.515625 61.125 135.25 64 C137.76806976 68.0692421 140.37079456 71.93368174 143.28125 75.7265625 C146.85963402 80.45978864 150.26944691 85.31860101 153.69775391 90.16113281 C154.56302733 91.38296247 155.42988014 92.60367523 156.29833984 93.82324219 C157.53771286 95.56585851 158.7698296 97.3133791 160 99.0625 C160.721875 100.08472656 161.44375 101.10695313 162.1875 102.16015625 C163.83149313 104.7359817 164.98785985 107.12699801 166 110 C157.27802179 108.76714654 148.75287623 106.86647424 140.18310547 104.8527832 C129.2037615 102.08379222 129.2037615 102.08379222 118 101 C116.96986723 102.64821244 115.96885372 104.31503702 115 106 C114.34 106 113.68 106 113 106 C112.76796875 106.67546875 112.5359375 107.3509375 112.296875 108.046875 C110.66867003 111.75447428 108.53124759 114.91639118 106.25 118.25 C105.40098945 119.50517301 104.55203175 120.76038178 103.703125 122.015625 C103.25775391 122.64807129 102.81238281 123.28051758 102.35351562 123.93212891 C100.9306257 126.01929321 100.9306257 126.01929321 99.75585938 128.48583984 C98.36432515 131.08401556 97.17589612 133.0040316 95 135 C90.91358007 135.98705795 87.14830764 135.58592307 83 135.125 C81.93265625 135.04507813 80.8653125 134.96515625 79.765625 134.8828125 C74.77398054 134.48546767 69.94762052 133.82460342 65 133 C65 258.07 65 383.14 65 512 C32.66 512 0.32 512 -33 512 C-33 450.62 -33 389.24 -33 326 C-35.97 326.33 -38.94 326.66 -42 327 C-44.09332781 327.07932819 -46.18851097 327.12218168 -48.28334045 327.12025452 C-49.44606256 327.12163201 -50.60878466 327.12300951 -51.80674076 327.12442875 C-53.05782344 327.12083064 -54.30890612 327.11723253 -55.59790039 327.11352539 C-56.97068243 327.11321851 -58.34346463 327.11335348 -59.7162466 327.11389065 C-63.36842888 327.11411496 -67.0205779 327.10834967 -70.67275238 327.10128021 C-74.10894365 327.09555461 -77.54512713 327.09531543 -80.98132324 327.09460449 C-91.00838651 327.08937227 -101.03544368 327.07541101 -111.0625 327.0625 C-144.6915625 327.0315625 -144.6915625 327.0315625 -179 327 C-179 388.05 -179 449.1 -179 512 C-231.47 512 -283.94 512 -338 512 C-338 506.06 -338 500.12 -338 494 C-291.14 494 -244.28 494 -196 494 C-196 432.62 -196 371.24 -196 308 C-136.6 308 -77.2 308 -16 308 C-16 369.38 -16 430.76 -16 494 C5.12 494 26.24 494 48 494 C48 374.54 48 255.08 48 132 C43.38 131.67 38.76 131.34 34 131 C29.50038236 125.37547795 29.50038236 125.37547795 27.96484375 122.22265625 C27.63033203 121.54396484 27.29582031 120.86527344 26.95117188 120.16601562 C26.61666016 119.47185547 26.28214844 118.77769531 25.9375 118.0625 C25.59912109 117.37220703 25.26074219 116.68191406 24.91210938 115.97070312 C24.24907107 114.6176946 23.58929417 113.26308198 22.93310547 111.90673828 C22.06484288 110.13250207 21.16074013 108.37592889 20.25390625 106.62109375 C19 104 19 104 19 102 C7.45 102 -4.1 102 -16 102 C-16 149.85 -16 197.7 -16 247 C-59.09289981 247.04030303 -59.09289981 247.04030303 -77.55664062 247.04882812 C-90.16056743 247.0546954 -102.76448742 247.0614776 -115.3684082 247.07543945 C-124.55960251 247.08561577 -133.75079113 247.09190595 -142.94199091 247.09408849 C-148.58289485 247.09556908 -154.22377496 247.10000811 -159.86467063 247.11000359 C-191.26168679 247.14355891 -222.59569797 246.55095267 -254 246 C-254 314.97 -254 383.94 -254 455 C-244.1 455 -234.2 455 -224 455 C-224 461.27 -224 467.54 -224 474 C-252.3551024 474.10836345 -280.66006258 473.96770518 -309 473 C-309 467.06 -309 461.12 -309 455 C-296.79 455 -284.58 455 -272 455 C-272 380.09 -272 305.18 -272 228 C-214.66494367 227.39005259 -157.44274519 226.91000207 -100.125 227.4375 C-78.30375 227.623125 -56.4825 227.80875 -34 228 C-34 180.81 -34 133.62 -34 85 C-19.81 84.67 -5.62 84.34 9 84 C7.02 79.545 7.02 79.545 5 75 C5.7890625 72.2421875 5.7890625 72.2421875 7.625 69.875 C8.2953125 68.95847656 8.965625 68.04195313 9.65625 67.09765625 C10.4296875 66.07542969 11.203125 65.05320312 12 64 C13.74078679 61.45885928 15.43145919 58.88529358 17.125 56.3125 C17.97555064 55.03057806 18.82708374 53.74930733 19.6796875 52.46875 C20.07768555 51.870625 20.47568359 51.2725 20.88574219 50.65625 C21.84671359 49.22784729 22.83134896 47.81541693 23.8203125 46.40625 C25.40471842 44.17047191 25.40471842 44.17047191 27 41 C25.96626448 38.24371044 24.34564565 35.9123715 22.6796875 33.49609375 C22.23069092 32.84326416 21.78169434 32.19043457 21.3190918 31.51782227 C20.60426636 30.48806274 20.60426636 30.48806274 19.875 29.4375 C19.38362549 28.72585693 18.89225098 28.01421387 18.38598633 27.28100586 C14.92919063 22.29198449 11.3835889 17.37407683 7.79296875 12.48046875 C0 1.69934641 0 1.69934641 0 0 Z M18 12 C21.05679449 18.22620772 24.9069179 23.61568665 29.18920898 29.03955078 C32.60883356 33.40271833 35.63180393 37.92911452 38.52734375 42.66015625 C39.92575992 44.88204295 41.3017981 46.99639939 43 49 C43.66 49 44.32 49 45 49 C45.33 49.66 45.66 50.32 46 51 C46.515625 50.278125 47.03125 49.55625 47.5625 48.8125 C50.43382597 45.49943158 53.3706338 43.44284263 57 41 C56.01 40.67 55.02 40.34 54 40 C53.505 36.535 53.505 36.535 53 33 C56.73639216 34.24546405 57.18756513 35.63404953 59 39 C60.77155654 38.88570603 62.54226229 38.75816963 64.3125 38.625 C65.29863281 38.55539063 66.28476562 38.48578125 67.30078125 38.4140625 C70.21528433 38.16134528 70.21528433 38.16134528 73 36 C72.67 34.35 72.34 32.7 72 31 C73.32 30.67 74.64 30.34 76 30 C75.67 32.31 75.34 34.62 75 37 C76.134375 37.391875 77.26875 37.78375 78.4375 38.1875 C85.54705036 40.87725884 91.49769496 43.69677294 96 50 C96.66 50 97.32 50 98 50 C99.5425442 54.50897535 100.90613768 59.05293692 102.21875 63.6328125 C102.96463256 65.89283665 103.87968794 67.90424383 105 70 C106.98 69.67 108.96 69.34 111 69 C111 70.32 111 71.64 111 73 C106.25 73.125 106.25 73.125 104 72 C103.80664062 72.67546875 103.61328125 73.3509375 103.4140625 74.046875 C103.15367187 74.93890625 102.89328125 75.8309375 102.625 76.75 C102.36976563 77.63171875 102.11453125 78.5134375 101.8515625 79.421875 C101.0790066 81.76080572 100.16374324 83.83442562 99 86 C102.92200839 88.67880573 106.20643 89.61500023 110.875 90.375 C119.0459818 91.76437001 127.11377066 93.52767268 135.19287109 95.37451172 C136.60366943 95.6899292 136.60366943 95.6899292 138.04296875 96.01171875 C138.87852295 96.20209717 139.71407715 96.39247559 140.57495117 96.58862305 C143.09507879 97.01612884 145.448843 97.07194769 148 97 C144.39895504 90.71181164 140.49518604 84.78610385 136.1875 78.9609375 C133.84329513 75.78788876 131.54071037 72.58670829 129.25 69.375 C128.83379395 68.79250488 128.41758789 68.21000977 127.98876953 67.60986328 C125.18317896 63.67737638 122.40169229 59.72865342 119.63452148 55.76904297 C118.62466787 54.33470131 117.60585009 52.90663092 116.57836914 51.48486328 C114.00207156 47.91543604 111.58515778 44.35008843 109.37890625 40.5390625 C105.47002806 34.11558321 102.1242242 29.31787115 94.69140625 27.03125 C89.76476089 25.84439877 84.79742335 25.08690358 79.77783203 24.41357422 C75.83342925 23.8263165 72.03261464 22.85360966 68.1875 21.8125 C63.44746782 20.5761986 58.71121817 19.51895599 53.90649414 18.57788086 C50.53879346 17.90830106 47.17983166 17.2016662 43.8203125 16.4921875 C41.933125 16.09580078 41.933125 16.09580078 40.0078125 15.69140625 C38.05242779 15.28026399 36.09705292 14.86905952 34.14257812 14.45361328 C32.22343809 14.0461051 30.30313844 13.64407015 28.3828125 13.2421875 C27.25246582 13.0035498 26.12211914 12.76491211 24.95751953 12.51904297 C21.84382212 11.8847616 21.84382212 11.8847616 18 12 Z M33 48 C31.14579877 50.78130184 29.29347993 53.56364884 27.44921875 56.3515625 C25.74157117 58.91760353 23.98791773 61.44522817 22.20703125 63.9609375 C21.51649658 64.95275024 21.51649658 64.95275024 20.81201172 65.96459961 C19.90754158 67.26282753 18.99143492 68.55303812 18.06298828 69.83422852 C16.2836653 72.41317329 15.00226213 74.28403689 14.9921875 77.47265625 C16.36666213 80.91949766 17.97313358 84.21360385 19.6875 87.5 C20.41181233 88.91582066 21.1344443 90.33250212 21.85546875 91.75 C22.21560059 92.45769531 22.57573242 93.16539063 22.94677734 93.89453125 C25.43338768 98.86544631 27.71074442 103.93588917 30 109 C30.33 109 30.66 109 31 109 C31.309375 107.5459375 31.309375 107.5459375 31.625 106.0625 C32.81080723 101.81263612 35.11476421 98.57543978 37.66015625 95.015625 C40.11564458 91.32165422 40.1648122 88.08397219 40.28125 83.7578125 C40.31863281 82.52675781 40.35601562 81.29570313 40.39453125 80.02734375 C40.42933594 78.73957031 40.46414063 77.45179687 40.5 76.125 C40.5690409 73.58582916 40.64181231 71.04675634 40.71875 68.5078125 C40.74904297 67.38004395 40.77933594 66.25227539 40.81054688 65.09033203 C41 62 41 62 41.65429688 59.25341797 C41.76837891 58.50979004 41.88246094 57.76616211 42 57 C39.83411155 54.333492 39.83411155 54.333492 37 52 C35.6594661 50.67390633 34.32479571 49.34181664 33 48 Z M55 80 C54.90203125 80.67804688 54.8040625 81.35609375 54.703125 82.0546875 C53.61724414 88.81335977 51.79064564 94.75491436 49 101 C49.99 101.33 50.98 101.66 52 102 C52.9590625 100.9790625 52.9590625 100.9790625 53.9375 99.9375 C58.46256241 95.39947179 63.67746097 91.54835936 69 88 C66.03 87.67 63.06 87.34 60 87 C59.01 84.69 58.02 82.38 57 80 C56.34 80 55.68 80 55 80 Z M97 88 C96.34 89.32 95.68 90.64 95 92 C95.66 92 96.32 92 97 92 C97.66 90.68 98.32 89.36 99 88 C98.34 88 97.68 88 97 88 Z M93 93 C92.34 93.33 91.68 93.66 91 94 C91 94.66 91 95.32 91 96 C90.28585937 96.11601563 89.57171875 96.23203125 88.8359375 96.3515625 C85.84851485 97.0346371 83.39242761 98.06661732 80.625 99.375 C77.45328145 100.85627367 74.28873278 102.32871945 71.0625 103.6875 C69.5465625 104.3371875 69.5465625 104.3371875 68 105 C67.38125 105.21140625 66.7625 105.4228125 66.125 105.640625 C62.83450285 107.74557538 61.0765732 110.84587269 58.9375 114.0625 C54.3988955 120.86703483 54.3988955 120.86703483 51 122 C48.8125 121.0625 48.8125 121.0625 47 120 C46.67 120.99 46.34 121.98 46 123 C48.83685884 124.41842942 51.42530407 124.33110717 54.58984375 124.53515625 C55.57858238 124.59962196 55.57858238 124.59962196 56.58729553 124.66539001 C57.98848293 124.75567497 59.38981125 124.84379477 60.79125977 124.92993164 C62.89836922 125.06008298 65.00481787 125.19841453 67.11132812 125.33789062 C71.07270433 125.59508362 75.03534559 125.79973636 79 126 C80.0916748 126.07500732 81.18334961 126.15001465 82.30810547 126.22729492 C87.86862358 126.5793153 87.86862358 126.5793153 92.578125 123.98046875 C93.12984375 123.05878906 93.6815625 122.13710937 94.25 121.1875 C94.87777344 120.1871875 95.50554687 119.186875 96.15234375 118.15625 C96.76207031 117.1146875 97.37179687 116.073125 98 115 C99.26816559 113.06075282 100.53888935 111.12317547 101.8125 109.1875 C104.10123923 105.54014843 106.20264412 101.9118922 108 98 C104.09029928 95.39353285 101.00049703 95.58532793 96.3984375 95.34375 C95.60695313 95.2303125 94.81546875 95.116875 94 95 C93.505 94.01 93.505 94.01 93 93 Z M40 100 C37.06342985 103.65152843 37.06342985 103.65152843 36 108 C37.41775618 109.22438548 37.41775618 109.22438548 39.28125 110.3828125 C39.95800781 110.82753906 40.63476562 111.27226563 41.33203125 111.73046875 C42.04746094 112.19066406 42.76289063 112.65085937 43.5 113.125 C44.21542969 113.59292969 44.93085938 114.06085938 45.66796875 114.54296875 C47.44126915 115.70152501 49.2201309 116.85156066 51 118 C54.50177065 114.15096452 54.50177065 114.15096452 55 109 C52.70286315 107.20971528 50.54502178 105.73131037 48.0625 104.25 C47.40314453 103.83878906 46.74378906 103.42757812 46.06445312 103.00390625 C43.22610036 100.92057968 43.22610036 100.92057968 40 100 Z M32 110 C32.33 110.99 32.66 111.98 33 113 C33.66 112.34 34.32 111.68 35 111 C34.01 110.67 33.02 110.34 32 110 Z M38 115 C36.80161791 117.32854463 36.80161791 117.32854463 36 120 C36.99 121.485 36.99 121.485 38 123 C40.62187494 121.95125002 41.79371361 121.35068687 43.25 118.875 C43.4975 118.25625 43.745 117.6375 44 117 C41.18490007 114.7226499 41.18490007 114.7226499 38 115 Z " fill="#d8e780" transform="translate(422,7)"/>
<path d="M0 0 C5.61 0.33 11.22 0.66 17 1 C17 126.4 17 251.8 17 381 C-15.34 381 -47.68 381 -81 381 C-81 319.62 -81 258.24 -81 195 C-83.97 195.33 -86.94 195.66 -90 196 C-92.09332781 196.07932819 -94.18851097 196.12218168 -96.28334045 196.12025452 C-97.44606256 196.12163201 -98.60878466 196.12300951 -99.80674076 196.12442875 C-101.05782344 196.12083064 -102.30890612 196.11723253 -103.59790039 196.11352539 C-104.97068243 196.11321851 -106.34346463 196.11335348 -107.7162466 196.11389065 C-111.36842888 196.11411496 -115.0205779 196.10834967 -118.67275238 196.10128021 C-122.10894365 196.09555461 -125.54512713 196.09531543 -128.98132324 196.09460449 C-139.00838651 196.08937227 -149.03544368 196.07541101 -159.0625 196.0625 C-192.6915625 196.0315625 -192.6915625 196.0315625 -227 196 C-227 257.05 -227 318.1 -227 381 C-279.47 381 -331.94 381 -386 381 C-386 375.06 -386 369.12 -386 363 C-339.14 363 -292.28 363 -244 363 C-244 301.62 -244 240.24 -244 177 C-184.6 177 -125.2 177 -64 177 C-64 238.38 -64 299.76 -64 363 C-42.88 363 -21.76 363 0 363 C0 243.21 0 123.42 0 0 Z " fill="#d8e780" transform="translate(470,138)"/>
<path d="M0 0 C1.09795647 0.00067978 1.09795647 0.00067978 2.21809387 0.00137329 C2.98555939 -0.00198532 3.7530249 -0.00534393 4.54374695 -0.00880432 C7.09349667 -0.01834245 9.64318092 -0.02025886 12.19294739 -0.02133179 C13.95792671 -0.02454238 15.72290577 -0.02790629 17.48788452 -0.03141785 C21.1927197 -0.03741629 24.89753152 -0.03925702 28.60237122 -0.03866577 C33.35862239 -0.03856411 38.11472441 -0.05221748 42.87094021 -0.06943798 C46.5176869 -0.08053575 50.16439728 -0.08258567 53.81115913 -0.08205605 C55.56510495 -0.08323948 57.3190516 -0.08768148 59.07298088 -0.09538841 C61.52250095 -0.10514367 63.97169397 -0.10232812 66.42121887 -0.09628296 C67.51613899 -0.10471222 67.51613899 -0.10471222 68.63317871 -0.11331177 C73.65603797 -0.08167871 73.65603797 -0.08167871 75.88435364 2.14663696 C76.13603592 4.55796051 76.13603592 4.55796051 76.13832092 7.65066528 C76.14396057 8.82009171 76.14960022 9.98951813 76.15541077 11.19438171 C76.1513623 12.48380173 76.14731384 13.77322174 76.1431427 15.10171509 C76.14585163 16.46820767 76.149412 17.83469879 76.15376282 19.20118713 C76.16290085 22.91806284 76.15933679 26.63482784 76.15300465 30.35170555 C76.14795194 34.23586711 76.15263406 38.12001899 76.15577698 42.00418091 C76.15941876 48.52775785 76.15461198 55.05128954 76.14509583 61.57485962 C76.13421085 69.12411324 76.13773628 76.67325885 76.14874864 84.22250986 C76.15781549 90.69642263 76.15910975 97.17030281 76.1538713 103.64421988 C76.15074827 107.5141893 76.15035133 111.38410791 76.15694427 115.2540741 C76.1627084 118.89183691 76.15873812 122.52946004 76.14715576 126.16720772 C76.14323612 128.14443391 76.14920278 130.12167188 76.15541077 132.09889221 C76.14977112 133.26831863 76.14413147 134.43774506 76.13832092 135.64260864 C76.13756687 136.66320122 76.13681282 137.68379379 76.13603592 138.73531342 C75.88435364 141.14663696 75.88435364 141.14663696 73.88435364 143.14663696 C71.36011034 143.33967862 68.94607841 143.40899456 66.42121887 143.38955688 C65.65200104 143.39145523 64.8827832 143.39335358 64.09025574 143.39530945 C61.54105014 143.39902209 58.99212777 143.38830706 56.44294739 143.37710571 C54.67700229 143.37591418 52.91105656 143.37546069 51.14511108 143.37571716 C47.44202209 143.37415151 43.73902967 143.36585494 40.03596497 143.35244751 C35.27855806 143.33544514 30.52125724 143.33163347 25.76382351 143.33239269 C22.11711608 143.33212138 18.47043205 143.32664662 14.82373238 143.31939125 C13.06896708 143.31619924 11.31419912 143.31423594 9.55943108 143.31349754 C7.11227225 143.31134029 4.66522822 143.30260988 2.21809387 143.29190063 C1.48612289 143.29235382 0.75415192 143.29280701 0 143.29327393 C-5.0011714 143.26111193 -5.0011714 143.26111193 -6.11564636 142.14663696 C-6.21426674 140.32667191 -6.2419677 138.5028413 -6.24263 136.6802063 C-6.24544983 135.49388107 -6.24826965 134.30755585 -6.25117493 133.08528137 C-6.2491507 131.77199356 -6.24712646 130.45870575 -6.24504089 129.10562134 C-6.24639491 127.71795099 -6.24817484 126.330281 -6.25035095 124.94261169 C-6.25492524 121.16378976 -6.25313575 117.384995 -6.24997187 113.60617256 C-6.24744824 109.66014658 -6.24978581 105.71412299 -6.25135803 101.76809692 C-6.25317972 95.14020366 -6.25077344 88.51232151 -6.24601746 81.88442993 C-6.24057484 74.21080493 -6.24233749 66.53720649 -6.24784386 58.86358213 C-6.25237501 52.28695304 -6.25302553 45.71033196 -6.25040519 39.1337018 C-6.24884243 35.20060573 -6.24864863 31.26752216 -6.25194168 27.33442688 C-6.25482042 23.63762347 -6.25284465 19.94085447 -6.24704742 16.24405479 C-6.2450842 14.23203453 -6.24807371 12.22001138 -6.25117493 10.20799255 C-6.2483551 9.02166733 -6.24553528 7.8353421 -6.24263 6.61306763 C-6.24206447 5.05672482 -6.24206447 5.05672482 -6.2414875 3.46894073 C-6.00719354 -0.85477844 -3.79395364 0.02439851 0 0 Z M-0.11564636 10.14663696 C-0.58249451 12.82592646 -0.58249451 12.82592646 -0.51408386 15.95913696 C-0.51795105 17.11671509 -0.52181824 18.27429321 -0.52580261 19.46694946 C-0.51420105 20.68124634 -0.50259949 21.89554321 -0.49064636 23.14663696 C-0.50224792 24.36093384 -0.51384949 25.57523071 -0.52580261 26.82632446 C-0.52193542 27.98390259 -0.51806824 29.14148071 -0.51408386 30.33413696 C-0.51070007 31.40019165 -0.50731628 32.46624634 -0.50382996 33.56460571 C-0.37572937 34.41667603 -0.24762878 35.26874634 -0.11564636 36.14663696 C3.38523339 38.4805568 4.80463974 38.40396182 8.94465637 38.42129517 C10.19282639 38.43082718 11.4409964 38.44035919 12.72698975 38.45018005 C14.09064258 38.44991862 15.45429543 38.44898156 16.81794739 38.44741821 C18.21655403 38.4513055 19.61515949 38.45564024 21.01376343 38.46040344 C23.94503099 38.46786466 26.87617812 38.46757521 29.80744934 38.46231079 C33.56139948 38.45651703 37.31485609 38.47344478 41.06872463 38.49665546 C43.95724361 38.51139724 46.84564387 38.51226392 49.7341938 38.50914574 C51.11806783 38.50965876 52.50194853 38.51489297 53.88578606 38.52495766 C55.82203779 38.53731144 57.75838922 38.5285897 59.69465637 38.51895142 C60.79591354 38.51958084 61.89717072 38.52021027 63.03179932 38.52085876 C66.22932523 38.10138072 67.61095126 37.40241525 69.88435364 35.14663696 C70.49949342 32.5953751 70.49949342 32.5953751 70.41560364 29.70913696 C70.42075989 28.64952759 70.42591614 27.58991821 70.43122864 26.49819946 C70.40802551 24.83917603 70.40802551 24.83917603 70.38435364 23.14663696 C70.39982239 22.04062134 70.41529114 20.93460571 70.43122864 19.79507446 C70.42349426 18.2056604 70.42349426 18.2056604 70.41560364 16.58413696 C70.41109192 15.6134729 70.4065802 14.64280884 70.40193176 13.64273071 C70.1075031 11.06759186 70.1075031 11.06759186 68.23886108 9.51390076 C65.21570309 7.75835122 63.18285177 7.77232883 59.69465637 7.77432251 C57.81767311 7.76497932 57.81767311 7.76497932 55.902771 7.75544739 C54.54115906 7.76413482 53.17955102 7.77345273 51.81794739 7.78335571 C50.41837566 7.78387455 49.01880319 7.78335593 47.61923218 7.78184509 C44.6896727 7.7819347 41.76038908 7.7923418 38.83088684 7.81045532 C35.07582014 7.83316331 31.32115558 7.83368167 27.56603909 7.82693768 C24.67755559 7.82359675 21.78916381 7.83022972 18.90069771 7.84006691 C17.51601199 7.84391551 16.13131606 7.84506853 14.7466259 7.84348106 C12.81261276 7.84311029 10.87861315 7.85720954 8.94465637 7.87197876 C7.293964 7.87888985 7.293964 7.87888985 5.60992432 7.88594055 C2.66585218 7.95072425 2.66585218 7.95072425 -0.11564636 10.14663696 Z M26.88435364 47.14663696 C24.74353569 49.75285011 24.88475697 51.16882032 24.94685364 54.58413696 C26.0844854 58.90713766 27.26019716 60.54669862 30.88435364 63.14663696 C35.42533917 63.9722707 37.32501506 63.47207032 41.32185364 61.14663696 C44.06731926 57.96375891 44.06731926 57.96375891 44.50935364 54.14663696 C44.16549506 50.10438835 43.04155861 47.8181181 39.88435364 45.14663696 C34.58933181 43.57774161 31.45597036 44.06345359 26.88435364 47.14663696 Z M0.88435364 49.14663696 C0.55435364 50.46663696 0.22435364 51.78663696 -0.11564636 53.14663696 C1.53435364 53.14663696 3.18435364 53.14663696 4.88435364 53.14663696 C4.88435364 51.82663696 4.88435364 50.50663696 4.88435364 49.14663696 C3.56435364 49.14663696 2.24435364 49.14663696 0.88435364 49.14663696 Z M13.88435364 49.14663696 C12.89435364 50.63163696 12.89435364 50.63163696 11.88435364 52.14663696 C12.95080479 53.44297317 12.95080479 53.44297317 15.44685364 53.20913696 C16.25122864 53.18851196 17.05560364 53.16788696 17.88435364 53.14663696 C17.88435364 51.82663696 17.88435364 50.50663696 17.88435364 49.14663696 C16.56435364 49.14663696 15.24435364 49.14663696 13.88435364 49.14663696 Z M51.88435364 49.14663696 C51.55435364 50.46663696 51.22435364 51.78663696 50.88435364 53.14663696 C52.53435364 53.14663696 54.18435364 53.14663696 55.88435364 53.14663696 C55.88435364 51.82663696 55.88435364 50.50663696 55.88435364 49.14663696 C54.56435364 49.14663696 53.24435364 49.14663696 51.88435364 49.14663696 Z M64.88435364 49.14663696 C64.55435364 50.46663696 64.22435364 51.78663696 63.88435364 53.14663696 C65.53435364 53.14663696 67.18435364 53.14663696 68.88435364 53.14663696 C68.88435364 51.82663696 68.88435364 50.50663696 68.88435364 49.14663696 C67.56435364 49.14663696 66.24435364 49.14663696 64.88435364 49.14663696 Z M-0.11564636 60.14663696 C-0.11564636 61.13663696 -0.11564636 62.12663696 -0.11564636 63.14663696 C1.86435364 63.14663696 3.84435364 63.14663696 5.88435364 63.14663696 C5.88435364 62.15663696 5.88435364 61.16663696 5.88435364 60.14663696 C3.90435364 60.14663696 1.92435364 60.14663696 -0.11564636 60.14663696 Z M12.88435364 60.14663696 C12.88435364 61.13663696 12.88435364 62.12663696 12.88435364 63.14663696 C14.53435364 63.14663696 16.18435364 63.14663696 17.88435364 63.14663696 C18.21435364 62.15663696 18.54435364 61.16663696 18.88435364 60.14663696 C16.90435364 60.14663696 14.92435364 60.14663696 12.88435364 60.14663696 Z M50.88435364 60.14663696 C50.88435364 61.13663696 50.88435364 62.12663696 50.88435364 63.14663696 C52.86435364 63.14663696 54.84435364 63.14663696 56.88435364 63.14663696 C56.88435364 62.15663696 56.88435364 61.16663696 56.88435364 60.14663696 C54.90435364 60.14663696 52.92435364 60.14663696 50.88435364 60.14663696 Z M63.88435364 60.14663696 C63.88435364 61.13663696 63.88435364 62.12663696 63.88435364 63.14663696 C65.53435364 63.14663696 67.18435364 63.14663696 68.88435364 63.14663696 C69.21435364 62.15663696 69.54435364 61.16663696 69.88435364 60.14663696 C67.90435364 60.14663696 65.92435364 60.14663696 63.88435364 60.14663696 Z M-0.11564636 70.14663696 C-0.11564636 71.13663696 -0.11564636 72.12663696 -0.11564636 73.14663696 C1.86435364 73.14663696 3.84435364 73.14663696 5.88435364 73.14663696 C5.88435364 72.15663696 5.88435364 71.16663696 5.88435364 70.14663696 C3.90435364 70.14663696 1.92435364 70.14663696 -0.11564636 70.14663696 Z M12.88435364 70.14663696 C12.88435364 71.13663696 12.88435364 72.12663696 12.88435364 73.14663696 C14.86435364 73.14663696 16.84435364 73.14663696 18.88435364 73.14663696 C18.55435364 72.15663696 18.22435364 71.16663696 17.88435364 70.14663696 C16.23435364 70.14663696 14.58435364 70.14663696 12.88435364 70.14663696 Z M25.88435364 70.14663696 C25.55435364 71.13663696 25.22435364 72.12663696 24.88435364 73.14663696 C26.86435364 73.14663696 28.84435364 73.14663696 30.88435364 73.14663696 C30.88435364 72.15663696 30.88435364 71.16663696 30.88435364 70.14663696 C29.23435364 70.14663696 27.58435364 70.14663696 25.88435364 70.14663696 Z M37.88435364 70.14663696 C37.88435364 71.13663696 37.88435364 72.12663696 37.88435364 73.14663696 C39.86435364 73.14663696 41.84435364 73.14663696 43.88435364 73.14663696 C43.88435364 72.15663696 43.88435364 71.16663696 43.88435364 70.14663696 C41.90435364 70.14663696 39.92435364 70.14663696 37.88435364 70.14663696 Z M50.88435364 70.14663696 C50.88435364 71.13663696 50.88435364 72.12663696 50.88435364 73.14663696 C52.86435364 73.14663696 54.84435364 73.14663696 56.88435364 73.14663696 C56.88435364 72.15663696 56.88435364 71.16663696 56.88435364 70.14663696 C54.90435364 70.14663696 52.92435364 70.14663696 50.88435364 70.14663696 Z M63.88435364 70.14663696 C63.88435364 71.13663696 63.88435364 72.12663696 63.88435364 73.14663696 C65.86435364 73.14663696 67.84435364 73.14663696 69.88435364 73.14663696 C69.88435364 72.15663696 69.88435364 71.16663696 69.88435364 70.14663696 C67.90435364 70.14663696 65.92435364 70.14663696 63.88435364 70.14663696 Z M-0.11564636 80.14663696 C0.21435364 81.46663696 0.54435364 82.78663696 0.88435364 84.14663696 C2.53435364 83.81663696 4.18435364 83.48663696 5.88435364 83.14663696 C5.55435364 82.15663696 5.22435364 81.16663696 4.88435364 80.14663696 C3.23435364 80.14663696 1.58435364 80.14663696 -0.11564636 80.14663696 Z M12.88435364 80.14663696 C12.88435364 81.13663696 12.88435364 82.12663696 12.88435364 83.14663696 C14.53435364 83.47663696 16.18435364 83.80663696 17.88435364 84.14663696 C17.88435364 82.82663696 17.88435364 81.50663696 17.88435364 80.14663696 C16.23435364 80.14663696 14.58435364 80.14663696 12.88435364 80.14663696 Z M25.88435364 80.14663696 C25.88435364 81.46663696 25.88435364 82.78663696 25.88435364 84.14663696 C27.53435364 83.81663696 29.18435364 83.48663696 30.88435364 83.14663696 C30.88435364 82.15663696 30.88435364 81.16663696 30.88435364 80.14663696 C29.23435364 80.14663696 27.58435364 80.14663696 25.88435364 80.14663696 Z M38.88435364 80.14663696 C38.88435364 81.46663696 38.88435364 82.78663696 38.88435364 84.14663696 C40.53435364 83.81663696 42.18435364 83.48663696 43.88435364 83.14663696 C43.88435364 82.15663696 43.88435364 81.16663696 43.88435364 80.14663696 C42.23435364 80.14663696 40.58435364 80.14663696 38.88435364 80.14663696 Z M50.88435364 80.14663696 C51.21435364 81.46663696 51.54435364 82.78663696 51.88435364 84.14663696 C53.53435364 83.81663696 55.18435364 83.48663696 56.88435364 83.14663696 C56.88435364 82.15663696 56.88435364 81.16663696 56.88435364 80.14663696 C54.90435364 80.14663696 52.92435364 80.14663696 50.88435364 80.14663696 Z M63.88435364 80.14663696 C64.21435364 81.46663696 64.54435364 82.78663696 64.88435364 84.14663696 C66.53435364 83.81663696 68.18435364 83.48663696 69.88435364 83.14663696 C69.55435364 82.15663696 69.22435364 81.16663696 68.88435364 80.14663696 C67.23435364 80.14663696 65.58435364 80.14663696 63.88435364 80.14663696 Z M0.88435364 90.14663696 C0.55435364 91.46663696 0.22435364 92.78663696 -0.11564636 94.14663696 C1.53435364 94.14663696 3.18435364 94.14663696 4.88435364 94.14663696 C4.88435364 92.82663696 4.88435364 91.50663696 4.88435364 90.14663696 C3.56435364 90.14663696 2.24435364 90.14663696 0.88435364 90.14663696 Z M12.88435364 90.14663696 C12.88435364 91.46663696 12.88435364 92.78663696 12.88435364 94.14663696 C14.53435364 94.14663696 16.18435364 94.14663696 17.88435364 94.14663696 C17.88435364 92.82663696 17.88435364 91.50663696 17.88435364 90.14663696 C16.23435364 90.14663696 14.58435364 90.14663696 12.88435364 90.14663696 Z M25.88435364 90.14663696 C25.88435364 91.46663696 25.88435364 92.78663696 25.88435364 94.14663696 C27.53435364 94.14663696 29.18435364 94.14663696 30.88435364 94.14663696 C30.88435364 92.82663696 30.88435364 91.50663696 30.88435364 90.14663696 C29.23435364 90.14663696 27.58435364 90.14663696 25.88435364 90.14663696 Z M38.88435364 90.14663696 C38.88435364 91.46663696 38.88435364 92.78663696 38.88435364 94.14663696 C40.53435364 94.14663696 42.18435364 94.14663696 43.88435364 94.14663696 C43.55435364 92.82663696 43.22435364 91.50663696 42.88435364 90.14663696 C41.56435364 90.14663696 40.24435364 90.14663696 38.88435364 90.14663696 Z M51.88435364 90.14663696 C51.88435364 91.46663696 51.88435364 92.78663696 51.88435364 94.14663696 C53.53435364 93.81663696 55.18435364 93.48663696 56.88435364 93.14663696 C56.55435364 92.15663696 56.22435364 91.16663696 55.88435364 90.14663696 C54.56435364 90.14663696 53.24435364 90.14663696 51.88435364 90.14663696 Z M64.88435364 90.14663696 C64.55435364 91.46663696 64.22435364 92.78663696 63.88435364 94.14663696 C65.53435364 94.14663696 67.18435364 94.14663696 68.88435364 94.14663696 C68.88435364 92.82663696 68.88435364 91.50663696 68.88435364 90.14663696 C67.56435364 90.14663696 66.24435364 90.14663696 64.88435364 90.14663696 Z M0.88435364 100.14663696 C-0.10564636 101.63163696 -0.10564636 101.63163696 -1.11564636 103.14663696 C0.00969468 104.50282195 0.00969468 104.50282195 2.94685364 104.20913696 C3.91622864 104.18851196 4.88560364 104.16788696 5.88435364 104.14663696 C5.88435364 103.15663696 5.88435364 102.16663696 5.88435364 101.14663696 C4.23435364 100.81663696 2.58435364 100.48663696 0.88435364 100.14663696 Z M13.88435364 100.14663696 C12.89435364 101.63163696 12.89435364 101.63163696 11.88435364 103.14663696 C12.95080479 104.44297317 12.95080479 104.44297317 15.44685364 104.20913696 C16.25122864 104.18851196 17.05560364 104.16788696 17.88435364 104.14663696 C18.21435364 103.15663696 18.54435364 102.16663696 18.88435364 101.14663696 C17.23435364 100.81663696 15.58435364 100.48663696 13.88435364 100.14663696 Z M24.88435364 101.14663696 C25.21435364 102.13663696 25.54435364 103.12663696 25.88435364 104.14663696 C27.53435364 104.14663696 29.18435364 104.14663696 30.88435364 104.14663696 C30.88435364 103.15663696 30.88435364 102.16663696 30.88435364 101.14663696 C27.83522136 100.13552604 27.83522136 100.13552604 24.88435364 101.14663696 Z M37.88435364 101.14663696 C37.88435364 102.13663696 37.88435364 103.12663696 37.88435364 104.14663696 C39.86435364 104.14663696 41.84435364 104.14663696 43.88435364 104.14663696 C43.55435364 102.82663696 43.22435364 101.50663696 42.88435364 100.14663696 C39.95888924 99.92303017 39.95888924 99.92303017 37.88435364 101.14663696 Z M50.88435364 101.14663696 C50.88435364 102.13663696 50.88435364 103.12663696 50.88435364 104.14663696 C52.86435364 104.14663696 54.84435364 104.14663696 56.88435364 104.14663696 C56.88435364 103.15663696 56.88435364 102.16663696 56.88435364 101.14663696 C53.83522136 100.13552604 53.83522136 100.13552604 50.88435364 101.14663696 Z M64.88435364 100.14663696 C64.55435364 101.46663696 64.22435364 102.78663696 63.88435364 104.14663696 C65.86435364 104.14663696 67.84435364 104.14663696 69.88435364 104.14663696 C69.88435364 103.15663696 69.88435364 102.16663696 69.88435364 101.14663696 C68.23435364 100.81663696 66.58435364 100.48663696 64.88435364 100.14663696 Z M-0.11564636 111.14663696 C-0.11564636 112.13663696 -0.11564636 113.12663696 -0.11564636 114.14663696 C2.93348592 115.15774789 2.93348592 115.15774789 5.88435364 114.14663696 C5.88435364 113.15663696 5.88435364 112.16663696 5.88435364 111.14663696 C3.90435364 111.14663696 1.92435364 111.14663696 -0.11564636 111.14663696 Z M12.88435364 111.14663696 C12.88435364 112.13663696 12.88435364 113.12663696 12.88435364 114.14663696 C14.86435364 114.64163696 14.86435364 114.64163696 16.88435364 115.14663696 C17.54435364 114.15663696 18.20435364 113.16663696 18.88435364 112.14663696 C17.81790249 110.85030076 17.81790249 110.85030076 15.32185364 111.08413696 C14.51747864 111.10476196 13.71310364 111.12538696 12.88435364 111.14663696 Z M25.88435364 111.14663696 C25.55435364 112.13663696 25.22435364 113.12663696 24.88435364 114.14663696 C26.72136153 114.91905965 26.72136153 114.91905965 28.88435364 115.14663696 C30.65626273 113.79219396 30.65626273 113.79219396 31.88435364 112.14663696 C30.81790249 110.85030076 30.81790249 110.85030076 28.32185364 111.08413696 C27.51747864 111.10476196 26.71310364 111.12538696 25.88435364 111.14663696 Z M37.88435364 111.14663696 C37.88435364 112.13663696 37.88435364 113.12663696 37.88435364 114.14663696 C40.93348592 115.15774789 40.93348592 115.15774789 43.88435364 114.14663696 C43.88435364 113.15663696 43.88435364 112.16663696 43.88435364 111.14663696 C41.90435364 111.14663696 39.92435364 111.14663696 37.88435364 111.14663696 Z M50.88435364 111.14663696 C50.88435364 112.13663696 50.88435364 113.12663696 50.88435364 114.14663696 C53.93348592 115.15774789 53.93348592 115.15774789 56.88435364 114.14663696 C56.88435364 113.15663696 56.88435364 112.16663696 56.88435364 111.14663696 C54.90435364 111.14663696 52.92435364 111.14663696 50.88435364 111.14663696 Z M63.88435364 111.14663696 C63.88435364 112.13663696 63.88435364 113.12663696 63.88435364 114.14663696 C66.93348592 115.15774789 66.93348592 115.15774789 69.88435364 114.14663696 C69.88435364 113.15663696 69.88435364 112.16663696 69.88435364 111.14663696 C67.90435364 111.14663696 65.92435364 111.14663696 63.88435364 111.14663696 Z M-0.11564636 121.14663696 C-0.11564636 122.13663696 -0.11564636 123.12663696 -0.11564636 124.14663696 C1.53435364 124.47663696 3.18435364 124.80663696 4.88435364 125.14663696 C4.88435364 123.82663696 4.88435364 122.50663696 4.88435364 121.14663696 C3.23435364 121.14663696 1.58435364 121.14663696 -0.11564636 121.14663696 Z M12.88435364 121.14663696 C12.88435364 122.13663696 12.88435364 123.12663696 12.88435364 124.14663696 C15.93348592 125.15774789 15.93348592 125.15774789 18.88435364 124.14663696 C18.55435364 123.15663696 18.22435364 122.16663696 17.88435364 121.14663696 C16.23435364 121.14663696 14.58435364 121.14663696 12.88435364 121.14663696 Z M25.88435364 121.14663696 C25.55435364 122.13663696 25.22435364 123.12663696 24.88435364 124.14663696 C27.35935364 124.64163696 27.35935364 124.64163696 29.88435364 125.14663696 C30.54435364 124.15663696 31.20435364 123.16663696 31.88435364 122.14663696 C30.81790249 120.85030076 30.81790249 120.85030076 28.32185364 121.08413696 C27.51747864 121.10476196 26.71310364 121.12538696 25.88435364 121.14663696 Z M38.88435364 121.14663696 C38.88435364 122.46663696 38.88435364 123.78663696 38.88435364 125.14663696 C40.53435364 124.81663696 42.18435364 124.48663696 43.88435364 124.14663696 C43.88435364 123.15663696 43.88435364 122.16663696 43.88435364 121.14663696 C42.23435364 121.14663696 40.58435364 121.14663696 38.88435364 121.14663696 Z M50.88435364 121.14663696 C51.21435364 122.46663696 51.54435364 123.78663696 51.88435364 125.14663696 C53.53435364 124.81663696 55.18435364 124.48663696 56.88435364 124.14663696 C56.88435364 123.15663696 56.88435364 122.16663696 56.88435364 121.14663696 C54.90435364 121.14663696 52.92435364 121.14663696 50.88435364 121.14663696 Z M63.88435364 121.14663696 C64.21435364 122.46663696 64.54435364 123.78663696 64.88435364 125.14663696 C66.53435364 124.81663696 68.18435364 124.48663696 69.88435364 124.14663696 C69.55435364 123.15663696 69.22435364 122.16663696 68.88435364 121.14663696 C67.23435364 121.14663696 65.58435364 121.14663696 63.88435364 121.14663696 Z M-0.11564636 131.14663696 C-0.11564636 132.46663696 -0.11564636 133.78663696 -0.11564636 135.14663696 C1.53435364 135.14663696 3.18435364 135.14663696 4.88435364 135.14663696 C4.88435364 133.82663696 4.88435364 132.50663696 4.88435364 131.14663696 C3.23435364 131.14663696 1.58435364 131.14663696 -0.11564636 131.14663696 Z M12.88435364 131.14663696 C12.88435364 132.46663696 12.88435364 133.78663696 12.88435364 135.14663696 C14.53435364 135.14663696 16.18435364 135.14663696 17.88435364 135.14663696 C17.88435364 133.82663696 17.88435364 132.50663696 17.88435364 131.14663696 C16.23435364 131.14663696 14.58435364 131.14663696 12.88435364 131.14663696 Z M25.88435364 131.14663696 C25.88435364 132.46663696 25.88435364 133.78663696 25.88435364 135.14663696 C27.53435364 135.14663696 29.18435364 135.14663696 30.88435364 135.14663696 C30.88435364 133.82663696 30.88435364 132.50663696 30.88435364 131.14663696 C29.23435364 131.14663696 27.58435364 131.14663696 25.88435364 131.14663696 Z M38.88435364 131.14663696 C38.88435364 132.46663696 38.88435364 133.78663696 38.88435364 135.14663696 C40.53435364 135.14663696 42.18435364 135.14663696 43.88435364 135.14663696 C43.55435364 133.82663696 43.22435364 132.50663696 42.88435364 131.14663696 C41.56435364 131.14663696 40.24435364 131.14663696 38.88435364 131.14663696 Z M51.88435364 131.14663696 C51.88435364 132.46663696 51.88435364 133.78663696 51.88435364 135.14663696 C53.53435364 134.81663696 55.18435364 134.48663696 56.88435364 134.14663696 C56.55435364 133.15663696 56.22435364 132.16663696 55.88435364 131.14663696 C54.56435364 131.14663696 53.24435364 131.14663696 51.88435364 131.14663696 Z M63.88435364 131.14663696 C63.88435364 132.46663696 63.88435364 133.78663696 63.88435364 135.14663696 C65.53435364 135.14663696 67.18435364 135.14663696 68.88435364 135.14663696 C68.88435364 133.82663696 68.88435364 132.50663696 68.88435364 131.14663696 C67.23435364 131.14663696 65.58435364 131.14663696 63.88435364 131.14663696 Z " fill="#147ca9" transform="translate(156.1156463623047,87.85336303710938)"/>
<path d="M0 0 C9.21340684 1.20250261 18.24570382 2.79048382 27.3125 4.8125 C36.6711177 6.86160705 46.03789632 8.83525243 55.4375 10.6875 C62.47940889 12.08007794 69.50118128 13.49446612 76.4765625 15.1953125 C79.54808722 15.89679154 82.61837528 16.51782281 85.7109375 17.1171875 C86.74395996 17.32408203 87.77698242 17.53097656 88.84130859 17.74414062 C90.90634604 18.15657352 92.97437967 18.5543471 95.04541016 18.93554688 C100.84251293 20.11395507 104.25494926 21.13620914 108 26 C108.43135254 26.55526367 108.86270508 27.11052734 109.30712891 27.68261719 C110.68375177 29.49093877 112.00262198 31.33038405 113.3125 33.1875 C113.76689453 33.81591797 114.22128906 34.44433594 114.68945312 35.09179688 C118 39.74647556 118 39.74647556 118 42 C118.66 42 119.32 42 120 42 C121.62109375 44.265625 121.62109375 44.265625 123.4375 47.25 C125.93749864 51.33995353 125.93749864 51.33995353 128.72265625 55.234375 C130 57 130 57 130 59 C130.66 59 131.32 59 132 59 C133.515625 61.125 133.515625 61.125 135.25 64 C137.76806976 68.0692421 140.37079456 71.93368174 143.28125 75.7265625 C146.85963402 80.45978864 150.26944691 85.31860101 153.69775391 90.16113281 C154.56302733 91.38296247 155.42988014 92.60367523 156.29833984 93.82324219 C157.53771286 95.56585851 158.7698296 97.3133791 160 99.0625 C160.721875 100.08472656 161.44375 101.10695313 162.1875 102.16015625 C163.83149313 104.7359817 164.98785985 107.12699801 166 110 C157.27802179 108.76714654 148.75287623 106.86647424 140.18310547 104.8527832 C129.2037615 102.08379222 129.2037615 102.08379222 118 101 C116.96986723 102.64821244 115.96885372 104.31503702 115 106 C114.34 106 113.68 106 113 106 C112.76796875 106.67546875 112.5359375 107.3509375 112.296875 108.046875 C110.66867003 111.75447428 108.53124759 114.91639118 106.25 118.25 C105.40098945 119.50517301 104.55203175 120.76038178 103.703125 122.015625 C103.25864014 122.64815186 102.81415527 123.28067871 102.35620117 123.93237305 C100.9325098 126.02161302 100.9325098 126.02161302 99.73168945 128.48364258 C98.34041662 131.04347412 97.12202478 132.99763617 95 135 C91.14588994 136.023616 87.61829997 135.62853613 83.6875 135.1875 C82.6238623 135.10508057 81.56022461 135.02266113 80.46435547 134.93774414 C77.30165289 134.67835394 74.15351841 134.35282696 71 134 C70.13616699 133.90654297 69.27233398 133.81308594 68.38232422 133.71679688 C65.43320998 133.3909279 62.48736696 133.05048445 59.54541016 132.66503906 C55.07992226 132.08109912 50.77216556 131.89972794 46.27734375 131.9765625 C43.71583735 132.00292449 41.18313271 131.95358715 38.625 131.8125 C37.83351563 131.77769531 37.04203125 131.74289063 36.2265625 131.70703125 C31.97444152 130.35679634 30.34271492 126.62000245 28.28125 122.890625 C27.68084698 121.68036113 27.08754708 120.46655698 26.5 119.25 C26.16959717 118.5782373 25.83919434 117.90647461 25.4987793 117.21435547 C21.71414826 109.48779226 18.00700788 101.72240896 14.30078125 93.95800781 C13.81609375 92.94319336 13.33140625 91.92837891 12.83203125 90.8828125 C12.36563232 89.89547119 11.8992334 88.90812988 11.41870117 87.89086914 C10.47518716 85.96828277 9.48005268 84.07016128 8.43481445 82.20092773 C4.83231244 75.69254013 4.83231244 75.69254013 5.69140625 72.14453125 C6.30886719 71.37496094 6.92632812 70.60539062 7.5625 69.8125 C8.58150391 68.45125 8.58150391 68.45125 9.62109375 67.0625 C10.40613281 66.051875 11.19117188 65.04125 12 64 C13.7479394 61.4634807 15.43466085 58.88764844 17.125 56.3125 C17.97536534 55.03045514 18.82689311 53.74918039 19.6796875 52.46875 C20.07768555 51.870625 20.47568359 51.2725 20.88574219 50.65625 C21.84671359 49.22784729 22.83134896 47.81541693 23.8203125 46.40625 C25.40471842 44.17047191 25.40471842 44.17047191 27 41 C25.96626448 38.24371044 24.34564565 35.9123715 22.6796875 33.49609375 C22.23069092 32.84326416 21.78169434 32.19043457 21.3190918 31.51782227 C20.8425415 30.83131592 20.36599121 30.14480957 19.875 29.4375 C19.38362549 28.72585693 18.89225098 28.01421387 18.38598633 27.28100586 C14.92919063 22.29198449 11.3835889 17.37407683 7.79296875 12.48046875 C0 1.69934641 0 1.69934641 0 0 Z M18 12 C21.05679449 18.22620772 24.9069179 23.61568665 29.18920898 29.03955078 C32.60883356 33.40271833 35.63180393 37.92911452 38.52734375 42.66015625 C39.92575992 44.88204295 41.3017981 46.99639939 43 49 C43.66 49 44.32 49 45 49 C45.33 49.66 45.66 50.32 46 51 C46.515625 50.278125 47.03125 49.55625 47.5625 48.8125 C50.43382597 45.49943158 53.3706338 43.44284263 57 41 C56.01 40.67 55.02 40.34 54 40 C53.505 36.535 53.505 36.535 53 33 C56.73639216 34.24546405 57.18756513 35.63404953 59 39 C60.77155654 38.88570603 62.54226229 38.75816963 64.3125 38.625 C65.29863281 38.55539063 66.28476562 38.48578125 67.30078125 38.4140625 C70.21528433 38.16134528 70.21528433 38.16134528 73 36 C72.67 34.35 72.34 32.7 72 31 C73.32 30.67 74.64 30.34 76 30 C75.67 32.31 75.34 34.62 75 37 C76.134375 37.391875 77.26875 37.78375 78.4375 38.1875 C85.54705036 40.87725884 91.49769496 43.69677294 96 50 C96.66 50 97.32 50 98 50 C99.5425442 54.50897535 100.90613768 59.05293692 102.21875 63.6328125 C102.96463256 65.89283665 103.87968794 67.90424383 105 70 C106.98 69.67 108.96 69.34 111 69 C111 70.32 111 71.64 111 73 C106.25 73.125 106.25 73.125 104 72 C103.80664062 72.67546875 103.61328125 73.3509375 103.4140625 74.046875 C103.15367187 74.93890625 102.89328125 75.8309375 102.625 76.75 C102.36976563 77.63171875 102.11453125 78.5134375 101.8515625 79.421875 C101.0790066 81.76080572 100.16374324 83.83442562 99 86 C102.92200839 88.67880573 106.20643 89.61500023 110.875 90.375 C119.0459818 91.76437001 127.11377066 93.52767268 135.19287109 95.37451172 C136.60366943 95.6899292 136.60366943 95.6899292 138.04296875 96.01171875 C138.87852295 96.20209717 139.71407715 96.39247559 140.57495117 96.58862305 C143.09507879 97.01612884 145.448843 97.07194769 148 97 C144.39895504 90.71181164 140.49518604 84.78610385 136.1875 78.9609375 C133.84329513 75.78788876 131.54071037 72.58670829 129.25 69.375 C128.83379395 68.79250488 128.41758789 68.21000977 127.98876953 67.60986328 C125.18317896 63.67737638 122.40169229 59.72865342 119.63452148 55.76904297 C118.62466787 54.33470131 117.60585009 52.90663092 116.57836914 51.48486328 C114.00207156 47.91543604 111.58515778 44.35008843 109.37890625 40.5390625 C105.47002806 34.11558321 102.1242242 29.31787115 94.69140625 27.03125 C89.76476089 25.84439877 84.79742335 25.08690358 79.77783203 24.41357422 C75.83342925 23.8263165 72.03261464 22.85360966 68.1875 21.8125 C63.44746782 20.5761986 58.71121817 19.51895599 53.90649414 18.57788086 C50.53879346 17.90830106 47.17983166 17.2016662 43.8203125 16.4921875 C41.933125 16.09580078 41.933125 16.09580078 40.0078125 15.69140625 C38.05242779 15.28026399 36.09705292 14.86905952 34.14257812 14.45361328 C32.22343809 14.0461051 30.30313844 13.64407015 28.3828125 13.2421875 C27.25246582 13.0035498 26.12211914 12.76491211 24.95751953 12.51904297 C21.84382212 11.8847616 21.84382212 11.8847616 18 12 Z M33 48 C31.14579877 50.78130184 29.29347993 53.56364884 27.44921875 56.3515625 C25.74157117 58.91760353 23.98791773 61.44522817 22.20703125 63.9609375 C21.51649658 64.95275024 21.51649658 64.95275024 20.81201172 65.96459961 C19.90754158 67.26282753 18.99143492 68.55303812 18.06298828 69.83422852 C16.2836653 72.41317329 15.00226213 74.28403689 14.9921875 77.47265625 C16.36666213 80.91949766 17.97313358 84.21360385 19.6875 87.5 C20.41181233 88.91582066 21.1344443 90.33250212 21.85546875 91.75 C22.21560059 92.45769531 22.57573242 93.16539063 22.94677734 93.89453125 C25.43338768 98.86544631 27.71074442 103.93588917 30 109 C30.33 109 30.66 109 31 109 C31.309375 107.5459375 31.309375 107.5459375 31.625 106.0625 C32.81080723 101.81263612 35.11476421 98.57543978 37.66015625 95.015625 C40.11564458 91.32165422 40.1648122 88.08397219 40.28125 83.7578125 C40.31863281 82.52675781 40.35601562 81.29570313 40.39453125 80.02734375 C40.42933594 78.73957031 40.46414063 77.45179687 40.5 76.125 C40.5690409 73.58582916 40.64181231 71.04675634 40.71875 68.5078125 C40.74904297 67.38004395 40.77933594 66.25227539 40.81054688 65.09033203 C41 62 41 62 41.65429688 59.25341797 C41.76837891 58.50979004 41.88246094 57.76616211 42 57 C39.83411155 54.333492 39.83411155 54.333492 37 52 C35.6594661 50.67390633 34.32479571 49.34181664 33 48 Z M55 80 C54.90203125 80.67804688 54.8040625 81.35609375 54.703125 82.0546875 C53.61724414 88.81335977 51.79064564 94.75491436 49 101 C49.99 101.33 50.98 101.66 52 102 C52.9590625 100.9790625 52.9590625 100.9790625 53.9375 99.9375 C58.46256241 95.39947179 63.67746097 91.54835936 69 88 C66.03 87.67 63.06 87.34 60 87 C59.01 84.69 58.02 82.38 57 80 C56.34 80 55.68 80 55 80 Z M97 88 C96.34 89.32 95.68 90.64 95 92 C95.66 92 96.32 92 97 92 C97.66 90.68 98.32 89.36 99 88 C98.34 88 97.68 88 97 88 Z M93 93 C92.34 93.33 91.68 93.66 91 94 C91 94.66 91 95.32 91 96 C90.28585937 96.11601563 89.57171875 96.23203125 88.8359375 96.3515625 C85.84851485 97.0346371 83.39242761 98.06661732 80.625 99.375 C77.45328145 100.85627367 74.28873278 102.32871945 71.0625 103.6875 C69.5465625 104.3371875 69.5465625 104.3371875 68 105 C67.38125 105.21140625 66.7625 105.4228125 66.125 105.640625 C62.83450285 107.74557538 61.0765732 110.84587269 58.9375 114.0625 C54.3988955 120.86703483 54.3988955 120.86703483 51 122 C48.8125 121.0625 48.8125 121.0625 47 120 C46.67 120.99 46.34 121.98 46 123 C48.83685884 124.41842942 51.42530407 124.33110717 54.58984375 124.53515625 C55.57858238 124.59962196 55.57858238 124.59962196 56.58729553 124.66539001 C57.98848293 124.75567497 59.38981125 124.84379477 60.79125977 124.92993164 C62.89836922 125.06008298 65.00481787 125.19841453 67.11132812 125.33789062 C71.07270433 125.59508362 75.03534559 125.79973636 79 126 C80.0916748 126.07500732 81.18334961 126.15001465 82.30810547 126.22729492 C87.86862358 126.5793153 87.86862358 126.5793153 92.578125 123.98046875 C93.12984375 123.05878906 93.6815625 122.13710937 94.25 121.1875 C94.87777344 120.1871875 95.50554687 119.186875 96.15234375 118.15625 C96.76207031 117.1146875 97.37179687 116.073125 98 115 C99.26816559 113.06075282 100.53888935 111.12317547 101.8125 109.1875 C104.10123923 105.54014843 106.20264412 101.9118922 108 98 C104.09029928 95.39353285 101.00049703 95.58532793 96.3984375 95.34375 C95.60695313 95.2303125 94.81546875 95.116875 94 95 C93.505 94.01 93.505 94.01 93 93 Z M40 100 C37.06342985 103.65152843 37.06342985 103.65152843 36 108 C37.41775618 109.22438548 37.41775618 109.22438548 39.28125 110.3828125 C39.95800781 110.82753906 40.63476562 111.27226563 41.33203125 111.73046875 C42.04746094 112.19066406 42.76289063 112.65085937 43.5 113.125 C44.21542969 113.59292969 44.93085938 114.06085938 45.66796875 114.54296875 C47.44126915 115.70152501 49.2201309 116.85156066 51 118 C54.50177065 114.15096452 54.50177065 114.15096452 55 109 C52.70286315 107.20971528 50.54502178 105.73131037 48.0625 104.25 C47.40314453 103.83878906 46.74378906 103.42757812 46.06445312 103.00390625 C43.22610036 100.92057968 43.22610036 100.92057968 40 100 Z M32 110 C32.33 110.99 32.66 111.98 33 113 C33.66 112.34 34.32 111.68 35 111 C34.01 110.67 33.02 110.34 32 110 Z M38 115 C36.80161791 117.32854463 36.80161791 117.32854463 36 120 C36.99 121.485 36.99 121.485 38 123 C40.62187494 121.95125002 41.79371361 121.35068687 43.25 118.875 C43.4975 118.25625 43.745 117.6375 44 117 C41.18490007 114.7226499 41.18490007 114.7226499 38 115 Z " fill="#147ca9" transform="translate(422,7)"/>
<path d="M0 0 C20.79 0 41.58 0 63 0 C63 7.26 63 14.52 63 22 C42.21 22 21.42 22 0 22 C0 14.74 0 7.48 0 0 Z M9 7 C8.34 7.66 7.68 8.32 7 9 C7.3185177 11.10820797 7.3185177 11.10820797 8 13 C10.0162233 12.28436734 10.0162233 12.28436734 12 11 C12.80528889 8.94999129 12.80528889 8.94999129 13 7 C11.68 7 10.36 7 9 7 Z M19.25 9.3125 C16.67903167 11.79920905 16.67903167 11.79920905 17 15 C20.18609925 14.64598897 21.79066678 14.16972964 24.3125 12.125 C26.31094107 10.06070069 26.31094107 10.06070069 26 7 C21.91139629 6.57093338 21.91139629 6.57093338 19.25 9.3125 Z " fill="#147ca9" transform="translate(159,100)"/>
<path d="M0 0 C0.66 1.98 1.32 3.96 2 6 C0.35 7.65 -1.3 9.3 -3 11 C-4.98 10.34 -6.96 9.68 -9 9 C-10.32 2.64 -10.32 2.64 -9 0 C-5.88291635 -1.55854182 -3.3141692 -0.68784644 0 0 Z " fill="#147ca9" transform="translate(195,137)"/>
<path d="M0 0 C1.32 0.66 2.64 1.32 4 2 C3.34 3.65 2.68 5.3 2 7 C0.35 6.67 -1.3 6.34 -3 6 C-2.42655063 3.13275314 -2.1385485 2.1385485 0 0 Z " fill="#147ca9" transform="translate(513,42)"/>
<path d="M0 0 C0 0.99 0 1.98 0 3 C-3 5 -3 5 -5.1875 4.625 C-5.785625 4.41875 -6.38375 4.2125 -7 4 C-6.625 2.0625 -6.625 2.0625 -6 0 C-3.50907189 -1.24546405 -2.58919267 -0.7767578 0 0 Z " fill="#147ca9" transform="translate(530,58)"/>
</svg>
